<svg id="Capa_1" data-name="Capa 1" xmlns="http://www.w3.org/2000/svg" viewBox="0 0 512 332.8"><defs><style>.cls-1{fill:#c6c6c6;}</style></defs><title>delivery</title><path class="cls-1" d="M119.47,439.47a51.2,51.2,0,1,1,51.2-51.2A51.25,51.25,0,0,1,119.47,439.47Zm0-85.34a34.14,34.14,0,1,0,34.13,34.14A34.17,34.17,0,0,0,119.47,354.13Z" transform="translate(0 -106.67)"/><path class="cls-1" d="M409.6,439.47a51.2,51.2,0,1,1,51.2-51.2A51.25,51.25,0,0,1,409.6,439.47Zm0-85.34a34.14,34.14,0,1,0,34.13,34.14A34.17,34.17,0,0,0,409.6,354.13Z" transform="translate(0 -106.67)"/><path class="cls-1" d="M503.47,396.8h-51.2V379.73h42.66V296.91L422,183.47H341.33V379.73h25.6V396.8H332.8a8.52,8.52,0,0,1-8.53-8.53V174.93a8.52,8.52,0,0,1,8.53-8.53h93.87a8.53,8.53,0,0,1,7.17,3.92l76.8,119.46A8.54,8.54,0,0,1,512,294.4v93.87A8.52,8.52,0,0,1,503.47,396.8Z" transform="translate(0 -106.67)"/><path class="cls-1" d="M494.93,294.4h-128a8.52,8.52,0,0,1-8.53-8.53v-76.8a8.53,8.53,0,0,1,8.53-8.54h76.8V217.6H375.47v59.73H494.93Z" transform="translate(0 -106.67)"/><path class="cls-1" d="M332.8,396.8H162.13V379.73H324.27v-256H17.07v256H76.8V396.8H8.53A8.52,8.52,0,0,1,0,388.27V115.2a8.53,8.53,0,0,1,8.53-8.53H332.8a8.52,8.52,0,0,1,8.53,8.53V388.27A8.52,8.52,0,0,1,332.8,396.8Z" transform="translate(0 -106.67)"/><rect class="cls-1" x="8.53" y="238.93" width="51.2" height="17.07"/><rect class="cls-1" x="179.2" y="238.93" width="145.07" height="17.07"/><rect class="cls-1" x="469.33" y="238.93" width="34.13" height="17.07"/><rect class="cls-1" x="34.13" y="34.13" width="298.67" height="17.07"/><rect class="cls-1" x="110.93" y="273.07" width="17.07" height="17.07"/><rect class="cls-1" x="401.07" y="273.07" width="17.07" height="17.07"/></svg>