<svg id="Layer_1" data-name="Layer 1" xmlns="http://www.w3.org/2000/svg" viewBox="0 0 360 372"><defs><style>.cls-1{fill:#c6c6c6;}</style></defs><title>pickup</title><path class="cls-1" d="M452,471.7V400a6,6,0,0,0-6-6c-36.65,0-41.78,62.88-42,65.55a6,6,0,0,0,3.3,5.82l8.68,4.34v2l-4.65,46.51A18,18,0,0,0,429.26,538h9.48a18,18,0,0,0,17.91-19.79Zm-35.59-15.2a132.16,132.16,0,0,1,5.52-24.77c4.62-13.57,10.67-21.82,18.07-24.64V466H428a6,6,0,0,0-3.32-5.37ZM443.19,524a6,6,0,0,1-4.45,2h-9.48a6,6,0,0,1-6-6.6l4.14-41.4h13.14l4.14,41.4a5.93,5.93,0,0,1-1.52,4.63Zm0,0" transform="translate(-290 -208)"/><path class="cls-1" d="M644,208H596a6,6,0,0,0-6,6v6H464.74a32.42,32.42,0,0,0-15.53,4l-58.74,32H320c-10.09,0-18,10.54-18,24,0,12.56,6.89,22.57,16,23.86L291,395.43c0,.09,0,.17-.07.25A30.21,30.21,0,0,0,290,403V574a6,6,0,0,0,6,6H566a6,6,0,0,0,6-6V403.46a30,30,0,0,0-1.22-8.47l-25-85a32.47,32.47,0,0,0,32.13-30H590v12a6,6,0,0,0,6,6h48a6,6,0,0,0,6-6V214a6,6,0,0,0-6-6ZM314,280c0-7.32,3.55-12,6-12H491.52l-24,24H320c-2.45,0-6-4.68-6-12ZM500.89,395.68A30.21,30.21,0,0,0,500,403V568H302V403a17.9,17.9,0,0,1,.51-4.25l28-94.7H456.66a26.44,26.44,0,0,0,38.93,34.37l28.86-22.45L501,395.43c0,.09,0,.17-.07.25ZM536,552.48,551.52,568h-31Zm23.27-154.1a18.19,18.19,0,0,1,.73,5.08V559.52l-18-18V412a6,6,0,0,0-12,0V541.52l-18,18V403a17.9,17.9,0,0,1,.51-4.25L536,319.22ZM590,268H575.58a9.59,9.59,0,0,0-9.58,9.58A20.44,20.44,0,0,1,545.58,298H530.83a8.49,8.49,0,0,0-5.17,1.77L488.21,328.9a14.42,14.42,0,0,1-19-21.58l41.08-41.07A6,6,0,0,0,506,256H415.53L455,234.49a20.48,20.48,0,0,1,9.78-2.49H590Zm48,18H602V220h36Zm0,0" transform="translate(-290 -208)"/><path class="cls-1" d="M398,400a6,6,0,0,0-12,0v18H374V400a6,6,0,0,0-12,0v18H350V400a6,6,0,0,0-12,0v24h0a6.06,6.06,0,0,0,.62,2.68l11.27,22.53-5,69.51a18,18,0,0,0,18,19.28h10.22a18,18,0,0,0,18-19.28l-5-69.51,11.27-22.53A6.06,6.06,0,0,0,398,424h0Zm-15.71,30-6,12H359.71l-6-12Zm-4.79,94.09a5.94,5.94,0,0,1-4.39,1.91H362.89a6,6,0,0,1-6-6.43L361.59,454h12.82l4.68,65.57a5.93,5.93,0,0,1-1.59,4.52Zm0,0" transform="translate(-290 -208)"/></svg>